<?xml version="1.0" encoding="UTF-8" standalone="no"?>
<!-- Created with Inkscape (http://www.inkscape.org/) -->

<svg
   width="553.9577mm"
   height="136.60785mm"
   viewBox="0 0 553.9577 136.60785"
   version="1.1"
   id="svg1"
   xml:space="preserve"
   xmlns="http://www.w3.org/2000/svg"
   xmlns:svg="http://www.w3.org/2000/svg"><defs
     id="defs1" /><g
     id="layer1"
     transform="translate(-374.50181,-541.29839)"><g
       id="g6"><path
         style="fill:#d25c06;fill-opacity:1;stroke-width:7.35564"
         d="m 588.42987,866.1953 c -2.3958,-3.04582 -3.8292,-7.12158 -3.3627,-9.56182 0.6164,-3.2239 -0.27731,-4.46149 -3.69128,-5.11423 -2.47746,-0.4737 -4.05715,-0.13754 -3.51063,0.74697 1.26974,2.05436 -7.98329,4.43501 -11.69774,3.00963 -1.54564,-0.59286 -4.22133,-3.23199 -5.946,-5.86413 -2.80192,-4.27627 -2.83163,-5.51379 -0.27878,-11.62294 3.21588,-7.69657 2.59308,-9.10076 -4.03641,-9.10076 -5.24413,0 -14.18351,-7.973 -14.18351,-12.65023 0,-3.35153 7.24155,-11.42021 11.78763,-13.13386 2.18397,-0.82332 1.82751,-1.78257 -1.60279,-4.31306 -2.42634,-1.78984 -3.82361,-4.20543 -3.10511,-5.36799 0.75881,-1.22781 0.4053,-1.55696 -0.84289,-0.78543 -2.94291,1.81882 -6.73408,-5.8253 -5.23367,-10.55262 1.36667,-4.30599 10.39189,-9.63604 16.31649,-9.63604 3.69959,0 3.74872,-0.33762 1.00633,-6.90091 -2.41428,-5.77815 -2.46996,-7.75711 -0.34204,-12.16358 2.14968,-4.45192 3.73372,-5.24368 10.28083,-5.13894 4.25678,0.0662 9.2723,0.81868 11.14548,1.66789 2.84987,1.29202 3.40581,0.54285 3.40581,-4.59124 0,-8.12048 7.99837,-16.43758 14.14217,-14.70569 2.39058,0.67377 6.50849,3.75005 9.15086,6.83589 l 4.80433,5.61074 4.99668,-5.98522 c 8.87892,-10.63551 20.44272,-7.29863 22.65522,6.53741 0.97867,6.12032 1.84538,7.35159 4.36146,6.19616 1.72702,-0.79316 6.62294,-1.49783 10.87972,-1.56594 6.54718,-0.10445 8.13122,0.68702 10.28083,5.13894 2.12784,4.40647 2.07216,6.38543 -0.34204,12.16358 -1.58587,3.79551 -2.70915,6.95681 -2.49613,7.02515 0.2133,0.0662 3.41743,0.41853 7.12106,0.77896 6.92526,0.67304 13.70105,6.71636 13.70105,12.21933 0,1.62818 -2.98241,5.77322 -6.62764,9.21103 l -6.62765,6.25068 6.62765,6.08267 c 3.64523,3.34542 6.62764,7.46317 6.62764,9.15048 0,5.2498 -9.04199,12.62184 -15.48096,12.62184 -6.92732,0 -6.75601,-0.51342 -2.90468,8.70436 2.73615,6.54844 2.7338,7.674 -0.0221,11.88385 -4.08981,6.24177 -10.94792,7.67906 -18.35762,3.84736 l -6.0481,-3.12761 v 5.97697 c 0,6.88627 -7.45479,15.53099 -13.39314,15.53099 -2.11151,0 -6.44678,-3.16359 -9.63397,-7.03015 -5.66988,-6.87863 -5.84281,-6.94034 -8.02405,-2.86473 -1.22604,2.29092 -3.19639,3.56763 -4.37844,2.83707 -1.26194,-0.77992 -1.60082,-0.44134 -0.82096,0.82089 1.41949,2.29672 -4.40243,6.23692 -9.21552,6.23692 -1.59823,0 -4.78499,-2.38889 -7.08171,-5.30864 z"
         id="path4" /><path
         style="fill:#cd7a13;fill-opacity:1;stroke-width:7.07122"
         d="m 433.99743,667.14859 -0.56145,-10.75779 -4.67726,9.68086 -4.67733,9.68078 -7.01599,-2.86491 c -3.85877,-1.57575 -7.016,-3.65751 -7.016,-4.6262 0,-0.96862 1.67807,-5.23433 3.72894,-9.47925 2.05094,-4.24493 3.29837,-8.14867 2.77206,-8.67498 -0.5261,-0.5261 -4.32094,2.32806 -8.43257,6.34296 l -7.4757,7.29983 -6.05416,-6.09914 -6.05424,-6.09915 7.27826,-6.51684 c 4.00302,-3.58425 6.77169,-7.02349 6.15246,-7.64264 -0.61944,-0.61944 -5.0393,0.71377 -9.82249,2.96213 -4.78319,2.24837 -8.85465,3.8297 -9.04777,3.51397 -1.66499,-2.72227 -4.8505,-11.51413 -4.8505,-13.38709 0,-1.29092 4.42001,-4.38112 9.82235,-6.86714 l 9.82235,-4.52 -11.69333,-0.61802 -11.69325,-0.61803 v -8.23649 -8.23655 l 10.7578,-0.58974 c 11.56583,-0.63428 11.37413,-0.95489 -4.20264,-7.03162 l -4.6704,-1.82197 3.21175,-7.06492 c 1.76639,-3.88571 3.37715,-7.34573 3.57938,-7.68897 0.20224,-0.34295 4.33339,1.13013 9.18022,3.27412 12.85922,5.68823 13.80365,4.86189 4.85927,-4.25179 l -7.99861,-8.14994 6.10564,-6.10556 6.10558,-6.10565 6.34295,6.92145 c 3.48866,3.80672 6.74029,6.52412 7.2258,6.03854 0.48579,-0.48579 -0.42922,-4.02331 -2.03312,-7.86171 -3.99361,-9.5581 -3.84533,-10.06652 3.87843,-13.29368 7.67467,-3.20673 8.6947,-2.58446 11.82534,7.21335 3.53335,11.05833 5.7023,10.21494 5.7023,-2.21732 v -11.35108 l 8.41914,0.3182 8.41921,0.31821 v 11.03266 c 0,12.37075 1.85223,12.85166 5.61278,1.45717 1.39246,-4.21919 3.18792,-8.07682 3.98986,-8.57252 1.47973,-0.91445 14.71939,3.97453 14.71939,5.43544 0,0.43771 -1.2719,4.40056 -2.82637,8.8065 -1.55454,4.40586 -2.42996,8.40718 -1.94544,8.8917 0.48438,0.48438 3.94935,-2.2787 7.69965,-6.14043 l 6.8187,-7.02137 5.77415,5.77414 c 5.63216,5.63216 5.69021,5.86693 2.36037,9.54629 -1.87755,2.0747 -4.27321,3.24103 -5.32371,2.59174 -1.0505,-0.64914 -1.36821,-0.30406 -0.70571,0.76765 0.66187,1.07136 -0.0495,2.98837 -1.5819,4.25999 -5.54709,4.60372 -2.58722,5.50501 6.60643,2.0117 l 9.39214,-3.56877 2.76888,5.35439 c 4.22533,8.17101 3.42763,10.33663 -4.80865,13.05489 -11.1436,3.67773 -10.83021,5.58181 0.91884,5.58181 h 10.40049 v 8.32989 8.3299 l -11.69325,0.55721 -11.69333,0.55722 9.82235,4.56023 c 10.32957,4.79563 11.16949,6.33914 7.65114,14.06105 -2.5175,5.52539 -5.18137,5.89669 -13.06295,1.82098 -8.21118,-4.24612 -8.87467,-1.75055 -1.54514,5.81163 l 6.35152,6.55311 -5.90087,5.90093 c -4.9367,4.93664 -6.36784,5.51336 -8.75827,3.52953 -1.57151,-1.30428 -2.67377,-3.34306 -2.4494,-4.5306 0.22416,-1.18754 -0.56358,-1.97563 -1.75133,-1.75134 -1.18754,0.22416 -3.18495,-0.82803 -4.4386,-2.33866 -4.59531,-5.53691 -5.25583,-2.50603 -1.44989,6.65219 2.14824,5.16927 3.53172,9.77292 3.07436,10.23029 -0.45751,0.45749 -3.85354,2.0942 -7.54705,3.63742 l -6.71539,2.80593 -4.41407,-9.7621 -4.414,-9.76203 -0.56075,10.7578 -0.56145,10.75787 h -8.23246 -8.23245 z"
         id="path5" /><path
         style="fill:#1c289f;fill-opacity:1;stroke-width:6.30425"
         d="m 628.19785,1033.6821 c -24.83344,-4.5691 -44.74617,-19.995 -55.51396,-43.00521 -4.21061,-8.9978 -5.20573,-13.29957 -5.27842,-22.8176 -0.087,-11.42318 0.0189,-11.72931 4.08043,-11.72931 3.22424,0 4.26501,0.9457 4.58899,4.17001 1.09555,10.90358 4.4902,23.2502 8.38055,30.48111 5.65643,10.5134 18.22672,22.0641 30.03471,27.5985 8.25169,3.8676 11.67893,4.4703 25.41879,4.4703 14.57669,0 16.79402,-0.4495 26.99625,-5.4719 29.45995,-14.5031 43.7027,-50.02936 31.35942,-78.22101 -1.67718,-3.83078 -6.30646,-10.51171 -10.28715,-14.84645 -16.00983,-17.43396 -41.32259,-22.56467 -62.31889,-12.63164 -11.39317,5.38995 -19.53927,13.46399 -24.65971,22.66132 -16.59814,29.81343 -1.40421,71.42938 38.04098,71.68258 13.98724,0.09 23.98824,-3.8856 32.92533,-13.08779 8.22736,-8.47146 11.80086,-16.60357 12.61922,-28.71706 0.90138,-13.3437 -1.83151,-21.17471 -10.36923,-29.71243 -21.96684,-21.96684 -60.16234,-8.12195 -62.38553,22.61315 -0.8565,11.84077 1.43314,18.11873 9.04584,24.80275 18.92889,16.61983 47.35437,3.70803 47.35437,-21.50985 0,-13.17399 -14.69968,-23.42533 -26.55104,-18.51633 -11.63008,4.81733 -17.35919,19.5305 -10.33859,26.5511 6.89546,6.89546 21.19804,1.9586 19.8952,-6.86728 -0.77347,-5.24003 -4.43264,-5.50803 -6.35002,-0.46526 -1.24439,3.27317 -2.65478,4.28292 -5.43123,3.88859 -5.62251,-0.79856 -5.95456,-8.48804 -0.59765,-13.84476 8.53615,-8.53614 23.03516,-2.63417 23.03516,9.37675 0,15.95442 -14.37892,26.44753 -29.43334,21.47915 -17.29394,-5.70756 -19.94047,-29.62241 -4.82622,-43.61097 7.0549,-6.52944 11.11616,-8.12681 20.66218,-8.12681 31.09704,0 41.82725,38.90119 16.66995,60.43493 -14.92197,12.77262 -35.12848,12.88382 -49.85974,0.27424 -10.17771,-8.71172 -14.29168,-17.49871 -14.36676,-30.68544 -0.15067,-26.46013 20.70763,-47.19455 47.4763,-47.19455 28.64922,0 50.82057,24.65604 47.87094,53.23566 -2.84524,27.56723 -24.49151,48.42901 -52.17334,50.28241 -24.41466,1.6347 -43.34771,-9.0268 -54.0776,-30.45188 -5.39007,-10.76275 -5.83667,-12.8156 -5.82122,-26.75637 0.0126,-13.66264 0.53523,-16.15263 5.46629,-26.16907 13.36583,-27.14982 41.28855,-41.65022 70.24043,-36.47626 29.53913,5.27892 51.26957,29.55514 53.186,59.41686 1.75661,27.37166 -10.68098,51.82822 -33.97014,66.79682 -13.90698,8.9385 -35.52646,13.4971 -50.73736,10.6985 z"
         id="path6" /><path
         style="fill:#cd7a13;fill-opacity:1;stroke-width:7.07122"
         d="m 574.5329,667.14859 -0.56145,-10.7578 -4.67726,9.68086 -4.67733,9.68078 -7.01599,-2.86491 c -3.85877,-1.57575 -7.016,-3.65751 -7.016,-4.6262 0,-0.96862 1.67807,-5.23433 3.72894,-9.47925 2.05094,-4.24493 3.29837,-8.14867 2.77206,-8.67498 -0.5261,-0.5261 -4.32094,2.32806 -8.43257,6.34296 l -7.4757,7.29983 -6.05416,-6.09914 -6.05424,-6.09914 7.27826,-6.51684 c 4.00302,-3.58426 6.77169,-7.02349 6.15246,-7.64264 -0.61944,-0.61944 -5.0393,0.71377 -9.82249,2.96213 -4.78319,2.24837 -8.85465,3.8297 -9.04777,3.51397 -1.66499,-2.72227 -4.8505,-11.51413 -4.8505,-13.38709 0,-1.29092 4.42001,-4.38112 9.82235,-6.86714 l 9.82235,-4.52 -11.69333,-0.61802 -11.69325,-0.61803 v -8.23649 -8.23655 l 10.7578,-0.58974 c 11.56583,-0.63429 11.37413,-0.9549 -4.20264,-7.03163 l -4.6704,-1.82197 3.21175,-7.06492 c 1.76639,-3.88571 3.37715,-7.34573 3.57938,-7.68897 0.20224,-0.34295 4.33339,1.13013 9.18022,3.27412 12.85922,5.68823 13.80365,4.86189 4.85927,-4.25178 l -7.99861,-8.14994 6.10564,-6.10557 6.10558,-6.10565 6.34295,6.92145 c 3.48866,3.80673 6.74029,6.52413 7.2258,6.03855 0.48579,-0.48579 -0.42922,-4.02332 -2.03312,-7.86172 -3.99361,-9.55809 -3.84533,-10.06651 3.87843,-13.29368 7.67467,-3.20672 8.6947,-2.58446 11.82534,7.21335 3.53335,11.05833 5.7023,10.21494 5.7023,-2.21731 V 541.2984 l 8.41914,0.31821 8.41921,0.31821 v 11.03266 c 0,12.37075 1.85223,12.85166 5.61278,1.45717 1.39246,-4.21919 3.18792,-8.07682 3.98986,-8.57253 1.47973,-0.91444 14.71939,3.97453 14.71939,5.43544 0,0.43771 -1.2719,4.40057 -2.82637,8.8065 -1.55454,4.40586 -2.42996,8.40719 -1.94544,8.89171 0.48438,0.48437 3.94935,-2.2787 7.69965,-6.14044 l 6.8187,-7.02137 5.77415,5.77415 c 5.63216,5.63215 5.69021,5.86692 2.36037,9.54629 -1.87755,2.07469 -4.27321,3.24102 -5.32371,2.59174 -1.0505,-0.64914 -1.36821,-0.30406 -0.70571,0.76765 0.66187,1.07136 -0.0495,2.98837 -1.5819,4.25999 -5.54709,4.60372 -2.58722,5.50501 6.60643,2.01169 l 9.39214,-3.56877 2.76888,5.35439 c 4.22533,8.17101 3.42763,10.33664 -4.80865,13.05489 -11.1436,3.67774 -10.83021,5.58181 0.91884,5.58181 h 10.40049 v 8.3299 8.3299 l -11.69325,0.55721 -11.69333,0.55721 9.82235,4.56023 c 10.32957,4.79563 11.16949,6.33915 7.65114,14.06105 -2.5175,5.5254 -5.18137,5.8967 -13.06295,1.82098 -8.21118,-4.24612 -8.87467,-1.75055 -1.54514,5.81163 l 6.35152,6.55311 -5.90087,5.90093 c -4.9367,4.93664 -6.36784,5.51336 -8.75827,3.52953 -1.57151,-1.30427 -2.67377,-3.34306 -2.4494,-4.5306 0.22416,-1.18754 -0.56358,-1.97563 -1.75133,-1.75133 -1.18754,0.22416 -3.18495,-0.82804 -4.4386,-2.33866 -4.59531,-5.53691 -5.25583,-2.50604 -1.44989,6.65218 2.14824,5.16927 3.53172,9.77292 3.07436,10.23029 -0.45751,0.4575 -3.85354,2.09421 -7.54705,3.63743 l -6.71539,2.80593 -4.41407,-9.7621 -4.414,-9.76203 -0.56075,10.7578 -0.56145,10.75787 h -8.23246 -8.23245 z"
         id="path7" /><path
         style="fill:#cd7a13;fill-opacity:1;stroke-width:7.07122"
         d="m 710.84174,667.14859 -0.56145,-10.7578 -4.67726,9.68086 -4.67733,9.68078 -7.01599,-2.86491 c -3.85877,-1.57575 -7.016,-3.65751 -7.016,-4.6262 0,-0.96862 1.67807,-5.23433 3.72894,-9.47925 2.05094,-4.24493 3.29837,-8.14867 2.77206,-8.67498 -0.5261,-0.5261 -4.32094,2.32806 -8.43257,6.34296 l -7.4757,7.29983 -6.05416,-6.09914 -6.05424,-6.09914 7.27826,-6.51684 c 4.00302,-3.58426 6.77169,-7.02349 6.15246,-7.64264 -0.61944,-0.61944 -5.0393,0.71377 -9.82249,2.96213 -4.78319,2.24837 -8.85465,3.8297 -9.04777,3.51397 -1.66499,-2.72227 -4.8505,-11.51413 -4.8505,-13.38709 0,-1.29092 4.42001,-4.38112 9.82235,-6.86714 l 9.82235,-4.52 -11.69333,-0.61802 -11.69325,-0.61803 v -8.23649 -8.23655 l 10.7578,-0.58974 c 11.56583,-0.63429 11.37413,-0.9549 -4.20264,-7.03163 l -4.6704,-1.82197 3.21175,-7.06492 c 1.76639,-3.88571 3.37715,-7.34573 3.57938,-7.68897 0.20224,-0.34295 4.33339,1.13013 9.18022,3.27412 12.85922,5.68823 13.80365,4.86189 4.85927,-4.25178 l -7.99861,-8.14994 6.10564,-6.10557 6.10558,-6.10565 6.34295,6.92145 c 3.48866,3.80673 6.74029,6.52413 7.2258,6.03855 0.48579,-0.48579 -0.42922,-4.02332 -2.03312,-7.86172 -3.99361,-9.55809 -3.84533,-10.06651 3.87843,-13.29368 7.67467,-3.20672 8.6947,-2.58446 11.82534,7.21335 3.53335,11.05833 5.7023,10.21494 5.7023,-2.21731 V 541.2984 l 8.41914,0.31821 8.41921,0.31821 v 11.03266 c 0,12.37075 1.85223,12.85166 5.61278,1.45717 1.39246,-4.21919 3.18792,-8.07682 3.98986,-8.57253 1.47973,-0.91444 14.71939,3.97453 14.71939,5.43544 0,0.43771 -1.2719,4.40057 -2.82637,8.8065 -1.55454,4.40586 -2.42996,8.40719 -1.94544,8.89171 0.48438,0.48437 3.94935,-2.2787 7.69965,-6.14044 l 6.8187,-7.02137 5.77415,5.77415 c 5.63216,5.63215 5.69021,5.86692 2.36037,9.54629 -1.87755,2.07469 -4.27321,3.24102 -5.32371,2.59174 -1.0505,-0.64914 -1.36821,-0.30406 -0.70571,0.76765 0.66187,1.07136 -0.0495,2.98837 -1.5819,4.25999 -5.54709,4.60372 -2.58722,5.50501 6.60643,2.01169 l 9.39214,-3.56877 2.76888,5.35439 c 4.22533,8.17101 3.42763,10.33664 -4.80865,13.05489 -11.1436,3.67774 -10.83021,5.58181 0.91884,5.58181 h 10.40049 v 8.3299 8.3299 l -11.69325,0.55721 -11.69333,0.55721 9.82235,4.56023 c 10.32957,4.79563 11.16949,6.33915 7.65114,14.06105 -2.5175,5.5254 -5.18137,5.8967 -13.06295,1.82098 -8.21118,-4.24612 -8.87467,-1.75055 -1.54514,5.81163 l 6.35152,6.55311 -5.90087,5.90093 c -4.9367,4.93664 -6.36784,5.51336 -8.75827,3.52953 -1.57151,-1.30427 -2.67377,-3.34306 -2.4494,-4.5306 0.22416,-1.18754 -0.56358,-1.97563 -1.75133,-1.75133 -1.18754,0.22416 -3.18495,-0.82804 -4.4386,-2.33866 -4.59531,-5.53691 -5.25583,-2.50604 -1.44989,6.65218 2.14824,5.16927 3.53172,9.77292 3.07436,10.23029 -0.45751,0.4575 -3.85354,2.09421 -7.54705,3.63743 l -6.71539,2.80593 -4.41407,-9.7621 -4.414,-9.76203 -0.56075,10.7578 -0.56145,10.75787 h -8.23246 -8.23245 z"
         id="path8" /><path
         style="fill:#cd7a13;fill-opacity:1;stroke-width:7.07122"
         d="m 851.37721,667.14859 -0.56145,-10.7578 -4.67726,9.68086 -4.67733,9.68078 -7.01599,-2.86491 c -3.85877,-1.57575 -7.016,-3.65751 -7.016,-4.6262 0,-0.96862 1.67807,-5.23433 3.72894,-9.47925 2.05094,-4.24493 3.29837,-8.14867 2.77206,-8.67498 -0.5261,-0.5261 -4.32094,2.32806 -8.43257,6.34296 l -7.4757,7.29983 -6.05416,-6.09914 -6.05424,-6.09914 7.27826,-6.51684 c 4.00302,-3.58426 6.77169,-7.02349 6.15246,-7.64264 -0.61944,-0.61944 -5.0393,0.71377 -9.82249,2.96213 -4.78319,2.24837 -8.85465,3.8297 -9.04777,3.51397 -1.66499,-2.72227 -4.8505,-11.51413 -4.8505,-13.38709 0,-1.29092 4.42001,-4.38112 9.82235,-6.86714 l 9.82235,-4.52 -11.69333,-0.61802 -11.69325,-0.61803 v -8.23649 -8.23655 l 10.7578,-0.58974 c 11.56583,-0.63429 11.37413,-0.9549 -4.20264,-7.03163 l -4.6704,-1.82197 3.21175,-7.06492 c 1.76639,-3.88571 3.37715,-7.34573 3.57938,-7.68897 0.20224,-0.34295 4.33339,1.13013 9.18022,3.27412 12.85922,5.68823 13.80365,4.86189 4.85927,-4.25178 l -7.99861,-8.14994 6.10564,-6.10557 6.10558,-6.10565 6.34295,6.92145 c 3.48866,3.80673 6.74029,6.52413 7.2258,6.03855 0.48579,-0.48579 -0.42922,-4.02332 -2.03312,-7.86172 -3.99361,-9.55809 -3.84533,-10.06651 3.87843,-13.29368 7.67467,-3.20672 8.6947,-2.58446 11.82534,7.21335 3.53335,11.05833 5.7023,10.21494 5.7023,-2.21731 V 541.2984 l 8.41914,0.31821 8.41921,0.31821 v 11.03266 c 0,12.37075 1.85223,12.85166 5.61278,1.45717 1.39246,-4.21919 3.18792,-8.07682 3.98986,-8.57253 1.47973,-0.91444 14.71939,3.97453 14.71939,5.43544 0,0.43771 -1.2719,4.40057 -2.82637,8.8065 -1.55454,4.40586 -2.42996,8.40719 -1.94544,8.89171 0.48438,0.48437 3.94935,-2.2787 7.69965,-6.14044 l 6.8187,-7.02137 5.77415,5.77415 c 5.63216,5.63215 5.69021,5.86692 2.36037,9.54629 -1.87755,2.07469 -4.27321,3.24102 -5.32371,2.59174 -1.0505,-0.64914 -1.36821,-0.30406 -0.70571,0.76765 0.66187,1.07136 -0.0495,2.98837 -1.5819,4.25999 -5.54709,4.60372 -2.58722,5.50501 6.60643,2.01169 l 9.39214,-3.56877 2.76888,5.35439 c 4.22533,8.17101 3.42763,10.33664 -4.80865,13.05489 -11.1436,3.67774 -10.83021,5.58181 0.91884,5.58181 h 10.40049 v 8.3299 8.3299 l -11.69325,0.55721 -11.69333,0.55721 9.82235,4.56023 c 10.32957,4.79563 11.16949,6.33915 7.65114,14.06105 -2.5175,5.5254 -5.18137,5.8967 -13.06295,1.82098 -8.21118,-4.24612 -8.87467,-1.75055 -1.54514,5.81163 l 6.35152,6.55311 -5.90087,5.90093 c -4.9367,4.93664 -6.36784,5.51336 -8.75827,3.52953 -1.57151,-1.30427 -2.67377,-3.34306 -2.4494,-4.5306 0.22416,-1.18754 -0.56358,-1.97563 -1.75133,-1.75133 -1.18754,0.22416 -3.18495,-0.82804 -4.4386,-2.33866 -4.59531,-5.53691 -5.25583,-2.50604 -1.44989,6.65218 2.14824,5.16927 3.53172,9.77292 3.07436,10.23029 -0.45751,0.4575 -3.85354,2.09421 -7.54705,3.63743 l -6.71539,2.80593 -4.41407,-9.7621 -4.414,-9.76203 -0.56075,10.7578 -0.56145,10.75787 h -8.23246 -8.23245 z"
         id="path9" /></g></g></svg>
